<?xml version="1.0" encoding="UTF-8" standalone="no"?>
<!DOCTYPE svg PUBLIC "-//W3C//DTD SVG 1.1//EN" "http://www.w3.org/Graphics/SVG/1.1/DTD/svg11.dtd">
<svg width="100%" height="100%" viewBox="0 0 128 128" version="1.1" xmlns="http://www.w3.org/2000/svg" xmlns:xlink="http://www.w3.org/1999/xlink" xml:space="preserve" xmlns:serif="http://www.serif.com/" style="fill-rule:evenodd;clip-rule:evenodd;stroke-linejoin:round;stroke-miterlimit:2;">
    <g transform="matrix(0.8862,0,0,1.10207,24.8296,-8.33992)">
        <ellipse cx="44.2" cy="65.64" rx="72.218" ry="58.073" style="fill:rgb(21,32,43);"/>
        <path d="M44.2,7.568C84.059,7.568 116.419,33.589 116.419,65.64C116.419,97.691 84.059,123.713 44.2,123.713C4.342,123.713 -28.018,97.691 -28.018,65.64C-28.018,33.589 4.342,7.568 44.2,7.568ZM44.2,11.26C81.525,11.26 111.827,35.627 111.827,65.64C111.827,95.653 81.525,120.02 44.2,120.02C6.876,120.02 -23.426,95.653 -23.426,65.64C-23.426,35.627 6.876,11.26 44.2,11.26Z" style="fill:rgb(56,68,77);"/>
    </g>
    <g transform="matrix(99.3323,0,0,99.3323,26.0809,97.1054)">
        <g>
            <path d="M0.059,-0.667L0.386,-0.667C0.453,-0.667 0.505,-0.66 0.542,-0.646C0.58,-0.633 0.608,-0.613 0.627,-0.586C0.646,-0.56 0.655,-0.527 0.655,-0.487C0.655,-0.406 0.612,-0.346 0.525,-0.308L0.525,-0.303C0.542,-0.294 0.556,-0.282 0.57,-0.266C0.583,-0.25 0.599,-0.226 0.617,-0.192L0.653,-0.126C0.662,-0.111 0.669,-0.098 0.676,-0.087C0.682,-0.076 0.689,-0.066 0.696,-0.058C0.703,-0.049 0.711,-0.042 0.718,-0.037C0.726,-0.031 0.735,-0.027 0.745,-0.024L0.745,-0L0.507,-0C0.503,-0.006 0.498,-0.013 0.493,-0.022C0.488,-0.03 0.481,-0.043 0.472,-0.061L0.4,-0.2C0.393,-0.213 0.385,-0.227 0.378,-0.241C0.37,-0.256 0.364,-0.265 0.359,-0.271C0.354,-0.276 0.348,-0.28 0.343,-0.282C0.337,-0.285 0.328,-0.286 0.315,-0.286L0.307,-0.286L0.307,-0.124C0.307,-0.1 0.308,-0.083 0.309,-0.073C0.311,-0.062 0.314,-0.054 0.317,-0.049C0.321,-0.043 0.326,-0.039 0.332,-0.035C0.339,-0.032 0.349,-0.028 0.364,-0.024L0.364,-0L0.059,-0L0.059,-0.024C0.079,-0.029 0.093,-0.035 0.1,-0.041C0.106,-0.048 0.111,-0.057 0.113,-0.068C0.115,-0.08 0.116,-0.098 0.116,-0.122L0.116,-0.544C0.116,-0.567 0.115,-0.583 0.114,-0.594C0.112,-0.604 0.109,-0.612 0.106,-0.617C0.102,-0.623 0.097,-0.628 0.091,-0.631C0.085,-0.635 0.074,-0.638 0.059,-0.643L0.059,-0.667ZM0.45,-0.319C0.549,-0.346 0.599,-0.402 0.599,-0.487C0.599,-0.528 0.585,-0.56 0.557,-0.585C0.529,-0.61 0.487,-0.626 0.432,-0.633L0.43,-0.628C0.458,-0.611 0.479,-0.59 0.492,-0.564C0.504,-0.539 0.511,-0.51 0.511,-0.476C0.511,-0.429 0.501,-0.392 0.482,-0.365C0.463,-0.338 0.432,-0.318 0.39,-0.305L0.39,-0.299C0.398,-0.294 0.405,-0.288 0.411,-0.281C0.417,-0.275 0.423,-0.267 0.428,-0.259C0.433,-0.251 0.441,-0.237 0.451,-0.219L0.508,-0.109C0.515,-0.095 0.522,-0.083 0.528,-0.071C0.535,-0.059 0.54,-0.05 0.545,-0.043L0.642,-0.043L0.642,-0.048C0.636,-0.054 0.628,-0.064 0.621,-0.076C0.613,-0.088 0.606,-0.099 0.602,-0.108L0.555,-0.197C0.54,-0.226 0.524,-0.249 0.509,-0.265C0.493,-0.282 0.473,-0.294 0.45,-0.303L0.45,-0.319ZM0.17,-0.043L0.252,-0.043L0.252,-0.624L0.17,-0.624L0.17,-0.043ZM0.307,-0.616L0.307,-0.333L0.346,-0.333C0.374,-0.333 0.396,-0.339 0.413,-0.351C0.429,-0.363 0.44,-0.38 0.447,-0.401C0.453,-0.422 0.457,-0.448 0.457,-0.479C0.457,-0.525 0.448,-0.56 0.43,-0.583C0.413,-0.605 0.387,-0.617 0.352,-0.617C0.33,-0.617 0.314,-0.616 0.307,-0.616Z" style="fill:white;fill-rule:nonzero;"/>
        </g>
    </g>
</svg>
